<svg width="418" height="309" viewBox="0 0 418 309" fill="none" xmlns="http://www.w3.org/2000/svg">
<path d="M277.264 150.531C276.775 153.106 276.188 155.654 275.503 158.176C275.429 158.468 275.346 158.757 275.263 159.05H265.739C264.927 159.051 264.15 159.373 263.576 159.947C263.003 160.52 262.68 161.298 262.679 162.109V189.26C262.391 189.798 262.098 190.331 261.805 190.865C260.293 193.618 258.719 196.341 257.111 199.029C230.883 242.717 194.303 279.276 150.6 305.479L153.187 299.639C152.239 299.574 151.286 299.508 150.338 299.443C129.686 298.031 108.964 296.466 88.7974 291.825C67.6998 286.969 47.0612 278.546 30.5266 264.582C13.9876 250.613 1.8632 230.665 0.180421 209.082C-0.380697 201.664 0.369474 194.206 2.39653 187.049C6.27322 173.272 14.7439 160.877 26.9645 153.543C46.1608 142.026 71.2009 144.373 91.4374 153.954C111.67 163.53 128.139 179.383 144.219 194.96C127.984 167.119 105.379 143.525 78.2596 126.112C69.2733 120.36 59.7364 115.237 52.0964 107.785C44.4606 100.337 38.8266 89.8957 40.1773 79.3141C41.7113 67.3121 51.5413 58.2034 61.3885 51.1796C65.3222 48.3736 69.3826 45.7118 73.5698 43.2642C85.3839 36.3409 98.164 31.1179 111.661 29.1816C129.944 26.5548 149.691 30.5409 163.708 42.5692C179.499 56.1229 185.977 77.9811 185.361 98.8907C195.09 84.747 210.095 73.9206 227.04 73.4617C244.632 72.9897 261.355 84.1045 270.166 99.3409C278.973 114.573 280.555 133.245 277.264 150.531Z" fill="#E9D0FD"/>
<path d="M165.96 209.272C176.263 208.365 185.782 207.304 195.766 204.479C205.445 201.74 214.758 197.156 221.648 189.67C229.058 181.618 233.058 171.162 235.881 160.753C237.454 154.949 238.747 149.064 239.967 143.178C241.291 136.791 242.467 130.375 243.496 123.932C245.543 111.106 247.005 98.2044 247.881 85.2273C247.987 83.6521 248.084 82.0763 248.172 80.5C248.227 79.5276 246.714 79.5307 246.66 80.5C245.94 93.2917 244.646 106.034 242.776 118.725C240.932 131.195 238.571 143.611 235.577 155.857C233.04 166.232 229.755 176.768 223.249 185.405C217.147 193.503 208.335 198.796 198.82 201.96C189.137 205.18 178.928 206.465 168.81 207.421C167.569 207.539 167.201 207.65 165.96 207.76C164.998 207.844 164.989 209.357 165.96 209.272L165.96 209.272Z" fill="white"/>
<path d="M3.26937 188.165C16.2696 188.886 29.1376 191.153 41.6012 194.919C54.0702 198.678 66.0525 203.893 77.2999 210.458C88.1678 216.806 98.2568 224.403 107.362 233.092C116.199 241.531 124.074 250.921 130.845 261.092C137.646 271.289 143.283 282.216 147.649 293.669C148.181 295.07 148.694 296.479 149.187 297.895C149.506 298.809 150.967 298.416 150.645 297.493C146.561 285.799 141.176 274.6 134.592 264.106C128.01 253.613 120.285 243.88 111.558 235.088C102.692 226.16 92.8245 218.285 82.1517 211.621C59.7424 197.662 34.3415 189.217 8.035 186.98C6.44815 186.848 4.8596 186.738 3.26939 186.652C2.2969 186.599 2.29988 188.111 3.26939 188.165L3.26937 188.165Z" fill="white"/>
<path d="M73.9784 45.0369C82.2905 47.6805 90.1693 51.5306 97.3625 56.4639C104.713 61.5393 111.416 67.4926 117.325 74.1918C123.551 81.239 129.086 88.8676 133.855 96.9726C138.913 105.53 143.306 114.463 146.998 123.693C150.798 133.169 153.995 142.877 156.569 152.757C159.185 162.754 161.228 172.892 162.689 183.123C164.142 193.244 165.022 203.44 165.323 213.661C165.627 223.434 165.338 233.217 164.458 242.956C163.653 252.041 162.183 261.055 160.06 269.926C158.174 277.937 155.517 285.747 152.125 293.247C151.339 294.949 150.505 296.627 149.624 298.282C149.166 299.141 150.471 299.905 150.93 299.045C154.678 291.882 157.671 284.349 159.861 276.567C162.317 267.903 164.098 259.063 165.187 250.124C166.394 240.426 166.982 230.661 166.947 220.888C166.925 210.621 166.314 200.364 165.116 190.167C163.918 179.843 162.139 169.595 159.788 159.471C157.443 149.33 154.468 139.345 150.88 129.575C147.423 120.116 143.282 110.922 138.493 102.063C133.931 93.6097 128.615 85.5857 122.609 78.089C116.905 70.9511 110.394 64.4981 103.204 58.8593C96.2719 53.4384 88.6114 49.0196 80.4479 45.7329C78.453 44.9389 76.4305 44.2208 74.3804 43.5786C73.4499 43.2859 73.0517 44.7454 73.9784 45.0369H73.9784Z" fill="white"/>
<path d="M163.682 308.093C223.426 308.093 271.858 306.136 271.858 303.722C271.858 301.308 223.426 299.351 163.682 299.351C103.938 299.351 55.5055 301.308 55.5055 303.722C55.5055 306.136 103.938 308.093 163.682 308.093Z" fill="#D5ACF5"/>
<path d="M185.979 293.696L191.163 295.054L198.868 275.707L191.218 273.702L185.979 293.696Z" fill="#FFB8B8"/>
<path d="M199.898 302.487L183.607 298.218L185.256 291.924L195.253 294.543C196.922 294.981 198.35 296.063 199.221 297.553C200.092 299.043 200.335 300.817 199.898 302.487Z" fill="#2F2E41"/>
<path d="M232.057 297.386L237.332 296.444L236.208 275.649L228.422 277.04L232.057 297.386Z" fill="#FFB8B8"/>
<path d="M248.38 299.525L231.801 302.487L230.657 296.081L240.83 294.264C241.672 294.114 242.534 294.131 243.369 294.314C244.203 294.497 244.994 294.843 245.695 295.331C246.396 295.82 246.994 296.441 247.454 297.161C247.915 297.881 248.23 298.684 248.38 299.525Z" fill="#2F2E41"/>
<path d="M221.67 144.457C222.97 144.773 224.027 146.098 224.662 147.632C225.248 149.244 225.645 150.918 225.844 152.621C226.343 155.793 226.822 159.227 225.79 162.164C224.581 165.607 221.357 167.411 218.561 166.563C215.766 165.716 213.542 162.535 212.782 158.873C212.091 155.173 212.536 151.351 214.06 147.909C214.855 146.101 215.949 144.433 217.404 143.617C218.118 143.186 218.968 143.04 219.785 143.211C220.601 143.381 221.323 143.854 221.805 144.534" fill="#2F2E41"/>
<path d="M229.024 201.883L239.067 291.831L230.773 294.98L215.475 234.664L194.177 289.813L185.098 290.318C185.098 290.318 197.555 204.506 206.787 202.555L229.024 201.883Z" fill="#2F2E41"/>
<path d="M220.589 155.936C226.518 155.936 231.324 151.13 231.324 145.201C231.324 139.272 226.518 134.466 220.589 134.466C214.66 134.466 209.854 139.272 209.854 145.201C209.854 151.13 214.66 155.936 220.589 155.936Z" fill="#FFB8B8"/>
<path d="M225.196 160.44L213.596 158.927C213.596 158.927 206.03 168.005 206.534 183.641C207.039 199.277 205.273 204.069 205.273 204.069L229.461 204.506C225.965 199.698 240.59 172.085 225.196 160.44Z" fill="#9E23FF"/>
<path d="M231.428 206.691C231.186 206.693 230.945 206.714 230.707 206.753L215.866 190.955L217.379 185.911L210.065 182.632L205.526 193.729L226.878 210.713C226.763 211.638 226.932 212.575 227.363 213.401C227.794 214.227 228.466 214.902 229.29 215.336C230.114 215.771 231.051 215.944 231.976 215.833C232.901 215.722 233.77 215.333 234.468 214.716C235.166 214.099 235.66 213.284 235.883 212.38C236.107 211.475 236.05 210.524 235.72 209.653C235.39 208.782 234.803 208.032 234.036 207.503C233.269 206.974 232.36 206.691 231.428 206.691Z" fill="#FFB8B8"/>
<path d="M382.569 169.805C382.52 169.805 382.489 169.804 382.478 169.803L376.549 169.804V168.929H382.499C382.637 168.934 385.448 169.014 388.037 165.871C391.897 161.188 395.066 149.595 388.248 120.959C379.08 82.4548 386.726 48.4383 390.439 35.6005C390.622 34.9654 390.655 34.2964 390.535 33.6464C390.415 32.9965 390.145 32.3833 389.748 31.8555C389.35 31.3276 388.835 30.8995 388.243 30.6049C387.651 30.3103 386.999 30.1574 386.338 30.1582H297.798C297.124 30.1591 296.461 30.3187 295.861 30.6241C295.261 30.9294 294.742 31.3719 294.345 31.9157C292.772 34.0793 290.613 38.2358 289.263 45.7514L288.402 45.5969C289.782 37.918 292.011 33.6392 293.638 31.4018C294.116 30.7466 294.742 30.2134 295.464 29.8454C296.187 29.4774 296.987 29.2851 297.798 29.284H386.338C387.135 29.2833 387.921 29.4677 388.633 29.8228C389.346 30.178 389.967 30.694 390.446 31.3302C390.925 31.9664 391.25 32.7053 391.395 33.4886C391.539 34.2719 391.5 35.078 391.279 35.8434C387.585 48.6146 379.979 82.4546 389.098 120.757C396.012 149.795 392.688 161.64 388.683 166.463C386.041 169.644 383.13 169.805 382.569 169.805Z" fill="#CCCCCC"/>
<path d="M366.616 185.758C366.567 185.758 366.535 185.757 366.525 185.756L360.596 185.757V184.883H366.546C366.685 184.887 369.494 184.967 372.084 181.825C375.943 177.141 379.113 165.548 372.295 136.913C363.127 98.4081 370.773 64.3916 374.486 51.5538C374.669 50.9186 374.702 50.2497 374.582 49.5997C374.462 48.9497 374.192 48.3366 373.794 47.8087C373.396 47.2809 372.881 46.8527 372.29 46.5582C371.698 46.2636 371.046 46.1107 370.385 46.1115H281.844C281.171 46.1124 280.508 46.272 279.908 46.5773C279.308 46.8827 278.788 47.3252 278.391 47.8689C276.819 50.0326 274.66 54.189 273.309 61.7047L272.449 61.5502C273.829 53.8713 276.058 49.5925 277.684 47.355C278.162 46.6999 278.788 46.1666 279.511 45.7987C280.234 45.4307 281.033 45.2384 281.844 45.2373H370.385C371.181 45.2365 371.967 45.421 372.68 45.7761C373.393 46.1312 374.014 46.6473 374.493 47.2835C374.972 47.9197 375.297 48.6586 375.441 49.4419C375.586 50.2251 375.546 51.0313 375.326 51.7966C371.632 64.5679 364.025 98.4079 373.145 136.71C380.059 165.748 376.735 177.593 372.73 182.416C370.087 185.597 367.176 185.758 366.616 185.758Z" fill="#CCCCCC"/>
<path d="M350.663 201.711C350.613 201.711 350.582 201.71 350.571 201.709L263.395 201.71C262.556 201.711 261.729 201.506 260.987 201.114C260.246 200.721 259.611 200.153 259.14 199.458C258.669 198.764 258.375 197.965 258.284 197.13C258.193 196.296 258.308 195.452 258.619 194.672C261.782 186.77 266.041 167.81 259.026 129.618C250.743 84.5207 258.158 68.2224 261.731 63.3083C262.209 62.6531 262.835 62.1198 263.558 61.7519C264.281 61.3839 265.08 61.1916 265.891 61.1905H354.432C355.228 61.1898 356.014 61.3742 356.727 61.7293C357.44 62.0845 358.06 62.6005 358.54 63.2367C359.019 63.8729 359.344 64.6118 359.488 65.3951C359.633 66.1784 359.593 66.9845 359.373 67.7499C355.679 80.5211 348.072 114.361 357.192 152.663C364.106 181.702 360.782 193.546 356.776 198.369C354.134 201.55 351.223 201.711 350.663 201.711ZM265.891 62.0647C265.218 62.0656 264.554 62.2252 263.955 62.5305C263.355 62.8359 262.835 63.2784 262.438 63.8222C258.932 68.6451 251.664 84.6957 259.886 129.46C266.587 165.945 263.337 185.237 259.43 194.997C259.167 195.641 259.068 196.34 259.143 197.032C259.217 197.724 259.463 198.386 259.857 198.959C260.249 199.537 260.776 200.011 261.392 200.338C262.009 200.665 262.697 200.836 263.395 200.836H350.593C350.73 200.842 353.541 200.92 356.131 197.778C359.99 193.095 363.159 181.501 356.341 152.866C347.174 114.361 354.82 80.3448 358.533 67.507C358.716 66.8718 358.748 66.2029 358.628 65.5529C358.508 64.9029 358.239 64.2898 357.841 63.7619C357.443 63.2341 356.928 62.806 356.336 62.5114C355.745 62.2168 355.093 62.0639 354.432 62.0647H265.891Z" fill="#3F3D56"/>
<path d="M339.372 100.527H269.877C268.95 100.527 268.06 100.159 267.404 99.5032C266.749 98.8475 266.38 97.9581 266.38 97.0307C266.38 96.1034 266.749 95.214 267.404 94.5582C268.06 93.9025 268.95 93.5341 269.877 93.5341H339.372C340.299 93.5341 341.189 93.9025 341.844 94.5582C342.5 95.214 342.869 96.1034 342.869 97.0307C342.869 97.9581 342.5 98.8475 341.844 99.5032C341.189 100.159 340.299 100.527 339.372 100.527Z" fill="#9E23FF"/>
<path d="M302.658 85.6668H269.877C268.95 85.6668 268.06 85.2984 267.404 84.6426C266.749 83.9869 266.38 83.0975 266.38 82.1702C266.38 81.2428 266.749 80.3534 267.404 79.6977C268.06 79.0419 268.95 78.6736 269.877 78.6736H302.658C303.585 78.6736 304.474 79.0419 305.13 79.6977C305.786 80.3534 306.154 81.2428 306.154 82.1702C306.154 83.0975 305.786 83.9869 305.13 84.6426C304.474 85.2984 303.585 85.6668 302.658 85.6668Z" fill="#9E23FF"/>
<path d="M298.425 183.931C299.13 180.943 302.445 179.964 305.155 180.074C306.867 180.189 308.566 180.458 310.23 180.877C311.971 181.266 313.696 181.728 315.411 182.217C318.558 183.114 321.671 184.199 324.87 184.901C327.532 185.485 330.425 185.827 333.08 185.021C335.633 184.246 337.798 182.343 338.492 179.713C339.147 177.234 338.248 174.524 335.846 173.391C333.656 172.358 330.889 172.883 329.803 175.219C328.579 177.853 329.802 180.726 331.74 182.632C332.842 183.667 334.049 184.583 335.341 185.367C336.652 186.261 338.112 186.915 339.652 187.298C342.18 187.838 345.192 187.042 346.496 184.627C346.786 184.08 346.961 183.479 347.009 182.862C347.086 182.022 345.774 182.027 345.697 182.862C345.476 185.268 342.659 186.394 340.553 186.13C339.131 185.895 337.773 185.368 336.564 184.582C335.398 183.902 334.293 183.122 333.261 182.251C331.474 180.705 329.799 178.161 330.999 175.748C331.976 173.783 334.524 173.803 336.073 175.07C337.949 176.604 337.614 179.389 336.377 181.212C335.007 183.229 332.523 184.075 330.182 184.166C327.638 184.265 325.115 183.682 322.683 182.991C319.662 182.133 316.671 181.173 313.635 180.365C311.911 179.907 310.174 179.493 308.42 179.171C306.761 178.805 305.057 178.687 303.363 178.821C300.627 179.137 297.834 180.729 297.16 183.582C296.967 184.403 298.231 184.753 298.425 183.931L298.425 183.931Z" fill="#3F3D56"/>
<path d="M259.256 166.825C259.203 167.061 259.168 167.301 259.152 167.542L240.376 178.374L235.812 175.746L230.947 182.116L240.71 189.074L262.13 172.175C263.004 172.499 263.955 172.548 264.858 172.318C265.761 172.087 266.571 171.587 267.183 170.885C267.795 170.182 268.178 169.31 268.281 168.384C268.385 167.458 268.205 166.523 267.764 165.702C267.323 164.882 266.643 164.215 265.814 163.79C264.985 163.365 264.046 163.203 263.122 163.325C262.199 163.447 261.334 163.847 260.644 164.472C259.953 165.098 259.469 165.918 259.256 166.825Z" fill="#FFB8B8"/>
<path d="M216.496 173.471L231.28 184.007L237.892 175.717L223.521 164.186C222.903 163.69 222.189 163.325 221.425 163.114C220.661 162.903 219.862 162.851 219.077 162.96C218.292 163.068 217.537 163.336 216.859 163.747C216.181 164.158 215.594 164.703 215.134 165.348C214.237 166.606 213.877 168.168 214.133 169.692C214.388 171.215 215.238 172.574 216.496 173.471Z" fill="#9E23FF"/>
<path d="M215.174 166.586L208.3 183.389L217.883 187.928L225.819 171.3C226.161 170.584 226.353 169.807 226.383 169.015C226.413 168.223 226.282 167.433 225.996 166.693C225.711 165.954 225.277 165.28 224.722 164.714C224.167 164.148 223.502 163.701 222.769 163.401C222.061 163.112 221.303 162.964 220.538 162.968C219.773 162.971 219.017 163.125 218.312 163.421C217.606 163.717 216.966 164.148 216.428 164.691C215.889 165.235 215.463 165.878 215.174 166.586Z" fill="#9E23FF"/>
<path d="M217.781 154.961C219.463 153.99 219.643 151.649 219.414 149.721C219.185 147.793 218.804 145.643 219.937 144.066C221.29 142.184 224.008 142.147 226.325 142.086C228.642 142.024 231.463 141.346 232.063 139.107C232.46 137.628 231.611 136.041 230.393 135.112C229.176 134.184 227.652 133.773 226.171 133.383C222.858 132.51 219.438 131.63 216.046 132.11C212.686 132.585 209.648 134.364 207.59 137.062C205.532 139.759 204.619 143.159 205.048 146.525C205.597 150.83 206.393 152.71 205.87 154.609C204.897 158.145 200.699 160.417 200.616 164.083C200.55 166.951 203.084 169.164 205.555 170.62C207.516 171.775 209.632 172.755 211.891 173.026C214.151 173.296 216.583 172.779 218.266 171.247C220.437 169.272 220.974 165.972 220.352 163.104C219.729 160.236 218.132 157.689 216.553 155.215" fill="#2F2E41"/>
<path d="M339.372 115.388H269.877C268.95 115.388 268.06 115.019 267.404 114.364C266.749 113.708 266.38 112.819 266.38 111.891C266.38 110.964 266.749 110.075 267.404 109.419C268.06 108.763 268.95 108.395 269.877 108.395H339.372C340.299 108.395 341.189 108.763 341.844 109.419C342.5 110.075 342.869 110.964 342.869 111.891C342.869 112.819 342.5 113.708 341.844 114.364C341.189 115.019 340.299 115.388 339.372 115.388Z" fill="#DEB5FF"/>
<path d="M339.372 130.248H269.877C268.95 130.248 268.06 129.88 267.404 129.224C266.749 128.569 266.38 127.679 266.38 126.752C266.38 125.824 266.749 124.935 267.404 124.279C268.06 123.624 268.95 123.255 269.877 123.255H339.372C340.299 123.255 341.189 123.624 341.844 124.279C342.5 124.935 342.869 125.824 342.869 126.752C342.869 127.679 342.5 128.569 341.844 129.224C341.189 129.88 340.299 130.248 339.372 130.248Z" fill="#DEB5FF"/>
<path d="M344.617 145.109H275.122C274.194 145.109 273.305 144.741 272.649 144.085C271.994 143.429 271.625 142.54 271.625 141.612C271.625 140.685 271.994 139.796 272.649 139.14C273.305 138.484 274.194 138.116 275.122 138.116H344.617C345.544 138.116 346.434 138.484 347.089 139.14C347.745 139.796 348.113 140.685 348.113 141.612C348.113 142.54 347.745 143.429 347.089 144.085C346.434 144.741 345.544 145.109 344.617 145.109Z" fill="#DEB5FF"/>
<path d="M344.617 159.97H275.122C274.194 159.97 273.305 159.601 272.649 158.945C271.994 158.29 271.625 157.4 271.625 156.473C271.625 155.546 271.994 154.656 272.649 154C273.305 153.345 274.194 152.976 275.122 152.976H344.617C345.544 152.976 346.434 153.345 347.089 154C347.745 154.656 348.113 155.546 348.113 156.473C348.113 157.4 347.745 158.29 347.089 158.945C346.434 159.601 345.544 159.97 344.617 159.97Z" fill="#DEB5FF"/>
<path d="M243.014 51.5749C257.256 51.5749 268.801 40.0295 268.801 25.7874C268.801 11.5454 257.256 0 243.014 0C228.772 0 217.226 11.5454 217.226 25.7874C217.226 40.0295 228.772 51.5749 243.014 51.5749Z" fill="#F0DDFF"/>
<path d="M304.423 291.966C319.51 291.966 331.74 279.736 331.74 264.649C331.74 249.562 319.51 237.332 304.423 237.332C289.336 237.332 277.106 249.562 277.106 264.649C277.106 279.736 289.336 291.966 304.423 291.966Z" fill="#F0DDFF"/>
<path d="M390.09 256.563C405.177 256.563 417.407 244.333 417.407 229.246C417.407 214.159 405.177 201.929 390.09 201.929C375.003 201.929 362.772 214.159 362.772 229.246C362.772 244.333 375.003 256.563 390.09 256.563Z" fill="#F0DDFF"/>
<path d="M397 216.112V242.888C397 243.444 396.775 243.978 396.374 244.373C395.973 244.768 395.428 244.993 394.858 244.999C394.85 245 394.842 245 394.834 245H391.639C389.083 245 386.631 244.009 384.823 242.246C383.016 240.483 382 238.092 382 235.598V216.112C382 215.552 382.228 215.015 382.634 214.619C383.04 214.223 383.591 214 384.166 214H385.46C384.861 215.707 393.001 216.425 393.448 214H394.834C395.409 214 395.96 214.223 396.366 214.619C396.772 215.015 397 215.552 397 216.112Z" fill="#9E23FF"/>
<path d="M388.56 229.246C388.56 229.188 388.597 229.133 388.662 229.092C388.727 229.051 388.816 229.028 388.908 229.027H391.273C391.365 229.028 391.453 229.051 391.518 229.092C391.583 229.133 391.619 229.188 391.619 229.246C391.619 229.304 391.583 229.359 391.518 229.4C391.453 229.441 391.365 229.464 391.273 229.465H388.908C388.816 229.464 388.727 229.441 388.662 229.4C388.597 229.359 388.56 229.304 388.56 229.246Z" fill="#3F3D56"/>
<path d="M395.377 248H383.684C382.776 247.999 381.907 247.639 381.265 247C380.624 246.361 380.263 245.494 380.262 244.59V226.265C380.197 226.219 380.145 226.158 380.109 226.088C380.073 226.018 380.054 225.941 380.054 225.862V224.019C380.054 223.94 380.073 223.862 380.109 223.792C380.145 223.722 380.197 223.662 380.262 223.616V223.121C380.197 223.075 380.145 223.015 380.109 222.945C380.073 222.874 380.054 222.797 380.054 222.718V220.875C380.054 220.796 380.073 220.719 380.109 220.648C380.145 220.578 380.197 220.518 380.262 220.472V219.578C380.182 219.535 380.116 219.472 380.07 219.395C380.024 219.318 380 219.23 380 219.141V217.298C380 217.208 380.024 217.12 380.07 217.043C380.116 216.966 380.182 216.903 380.262 216.86V214.41C380.263 213.506 380.624 212.639 381.265 212C381.907 211.361 382.776 211.001 383.684 211H395.377C396.284 211.001 397.154 211.361 397.795 212C398.437 212.639 398.798 213.506 398.799 214.41V219.75C398.86 219.788 398.911 219.842 398.946 219.905C398.981 219.969 399 220.04 399 220.112V223.626C399 223.699 398.981 223.77 398.946 223.833C398.911 223.897 398.86 223.95 398.799 223.989V244.59C398.798 245.494 398.437 246.361 397.795 247C397.154 247.639 396.284 247.999 395.377 248ZM383.684 211.453C382.897 211.454 382.143 211.766 381.587 212.32C381.03 212.875 380.717 213.626 380.716 214.41V217.246L380.498 217.254C380.486 217.254 380.476 217.259 380.468 217.267C380.46 217.275 380.455 217.286 380.455 217.298V219.14C380.455 219.152 380.46 219.163 380.468 219.171C380.476 219.179 380.486 219.184 380.498 219.184L380.716 219.192V220.79L380.543 220.833C380.534 220.835 380.525 220.84 380.519 220.848C380.513 220.856 380.509 220.865 380.509 220.875V222.718C380.509 222.728 380.513 222.737 380.519 222.745C380.525 222.753 380.534 222.758 380.543 222.76L380.716 222.803V223.934L380.543 223.977C380.534 223.979 380.525 223.984 380.519 223.992C380.513 224 380.509 224.009 380.509 224.019V225.862C380.509 225.872 380.513 225.881 380.519 225.889C380.525 225.896 380.534 225.902 380.543 225.904L380.716 225.947V244.59C380.717 245.374 381.03 246.125 381.587 246.68C382.143 247.234 382.897 247.546 383.684 247.547H395.377C396.163 247.546 396.918 247.234 397.474 246.68C398.03 246.125 398.343 245.374 398.344 244.59V223.601H398.545V220.138H398.344V214.41C398.343 213.626 398.03 212.875 397.474 212.32C396.918 211.766 396.163 211.454 395.377 211.453L383.684 211.453Z" fill="#3F3D56"/>
<path d="M390.09 229.465C390.21 229.465 390.308 229.367 390.308 229.246C390.308 229.125 390.21 229.027 390.09 229.027C389.969 229.027 389.871 229.125 389.871 229.246C389.871 229.367 389.969 229.465 390.09 229.465Z" fill="#3F3D56"/>
<path d="M319.306 275H287.694C287.245 274.999 286.815 274.818 286.498 274.497C286.18 274.176 286.001 273.741 286 273.287V257.713C286.001 257.259 286.18 256.824 286.497 256.503C286.815 256.182 287.245 256.001 287.694 256H319.306C319.755 256.001 320.185 256.182 320.502 256.503C320.82 256.824 320.999 257.259 321 257.713V273.287C320.999 273.741 320.82 274.176 320.503 274.497C320.185 274.818 319.755 274.999 319.306 275Z" fill="white"/>
<path d="M319.306 275H287.694C287.245 274.999 286.815 274.818 286.498 274.497C286.18 274.176 286.001 273.741 286 273.287V257.713C286.001 257.259 286.18 256.824 286.497 256.503C286.815 256.182 287.245 256.001 287.694 256H319.306C319.755 256.001 320.185 256.182 320.502 256.503C320.82 256.824 320.999 257.259 321 257.713V273.287C320.999 273.741 320.82 274.176 320.503 274.497C320.185 274.818 319.755 274.999 319.306 275ZM287.694 256.478C287.37 256.479 287.06 256.609 286.831 256.841C286.602 257.072 286.473 257.386 286.473 257.713V273.287C286.474 273.614 286.603 273.928 286.831 274.159C287.06 274.391 287.371 274.521 287.694 274.522H319.306C319.629 274.521 319.94 274.391 320.169 274.159C320.398 273.928 320.527 273.614 320.527 273.287V257.713C320.526 257.386 320.397 257.072 320.169 256.841C319.94 256.609 319.629 256.479 319.306 256.478L287.694 256.478Z" fill="#3F3D56"/>
<path d="M305.175 273C299.011 273 292.583 272.938 290.184 272.898C289.869 272.892 289.568 272.756 289.347 272.521C289.126 272.285 289.001 271.968 289 271.638V258.447C289 258.329 289.045 258.215 289.125 258.131C289.205 258.048 289.313 258 289.426 258H317.573C317.686 258 317.794 258.047 317.874 258.131C317.954 258.214 318 258.327 318 258.446V267.396C317.995 268.857 317.442 270.257 316.462 271.297C315.481 272.337 314.149 272.933 312.753 272.958C310.518 272.988 307.871 273 305.175 273Z" fill="#9E23FF"/>
<path d="M316.461 271H290.927C290.713 270.999 290.505 270.928 290.33 270.795C290.155 270.663 290.023 270.476 289.95 270.259L287.06 261.538C287.004 261.37 286.987 261.19 287.01 261.013C287.032 260.836 287.094 260.667 287.189 260.521C287.285 260.375 287.411 260.256 287.559 260.174C287.706 260.091 287.869 260.048 288.035 260.048L319.953 260C320.105 260 320.254 260.035 320.392 260.104C320.53 260.173 320.651 260.274 320.749 260.399C320.846 260.524 320.917 260.67 320.956 260.828C320.995 260.986 321.002 261.151 320.975 261.311L321 261.323L320.908 261.553L320.907 261.555L317.414 270.324C317.334 270.525 317.201 270.696 317.032 270.816C316.863 270.936 316.664 271 316.461 271ZM319.954 260.505L288.036 260.552C287.945 260.553 287.856 260.576 287.775 260.621C287.694 260.666 287.625 260.732 287.573 260.812C287.52 260.892 287.487 260.984 287.474 261.081C287.462 261.178 287.471 261.277 287.502 261.369L290.392 270.09C290.432 270.208 290.504 270.311 290.6 270.383C290.696 270.456 290.81 270.495 290.927 270.495H316.461C316.572 270.495 316.681 270.46 316.774 270.395C316.866 270.329 316.939 270.235 316.982 270.125L320.476 261.356L320.648 261.435L320.476 261.356C320.513 261.263 320.528 261.162 320.52 261.061C320.512 260.96 320.48 260.864 320.428 260.779C320.377 260.695 320.306 260.626 320.224 260.578C320.141 260.53 320.048 260.505 319.954 260.505Z" fill="#3F3D56"/>
<path d="M304 268C305.105 268 306 267.105 306 266C306 264.895 305.105 264 304 264C302.895 264 302 264.895 302 266C302 267.105 302.895 268 304 268Z" fill="white"/>
<path d="M389.5 231C390.328 231 391 230.105 391 229C391 227.895 390.328 227 389.5 227C388.672 227 388 227.895 388 229C388 230.105 388.672 231 389.5 231Z" fill="white"/>
<path d="M254.307 34.0625L249.875 29.6753C249.66 29.46 249.404 29.2896 249.122 29.1737C248.841 29.0578 248.539 28.9988 248.235 29H248.219C247.913 29.0009 247.609 29.0628 247.327 29.182C247.044 29.3013 246.788 29.4756 246.573 29.6948C245.582 30.7003 245.018 32.0519 245 33.4655C244.983 34.879 245.512 36.2445 246.477 37.2748C246.524 37.3255 246.573 37.3743 246.621 37.4231C246.891 37.6917 247.188 37.9305 247.509 38.1354C248.385 38.703 249.407 39.0034 250.45 39H250.483C251.199 38.9975 251.907 38.8528 252.567 38.5741C253.227 38.2954 253.825 37.8882 254.327 37.3763C254.761 36.9338 255.004 36.3365 255 35.7153C254.996 35.0941 254.747 34.4997 254.307 34.0625ZM254.05 37.1011C253.227 37.9322 252.144 38.4536 250.983 38.5773C249.821 38.701 248.653 38.4195 247.674 37.7802C247.394 37.5945 247.133 37.3821 246.894 37.146C245.939 36.2003 245.398 34.913 245.389 33.5673C245.381 32.2215 245.906 30.9275 246.849 29.97C247.028 29.7868 247.242 29.6412 247.478 29.5417C247.714 29.4422 247.967 29.3907 248.223 29.3903H248.235C248.488 29.3894 248.739 29.4386 248.974 29.5351C249.208 29.6315 249.421 29.7733 249.601 29.9524L254.033 34.3415C254.4 34.7054 254.607 35.2003 254.611 35.7177C254.614 36.235 254.412 36.7326 254.05 37.1011Z" fill="#3F3D56"/>
<path d="M239.305 19.0634L234.874 14.6751C234.437 14.2412 233.847 13.9985 233.233 14H233.219C232.912 14.0012 232.608 14.0634 232.325 14.183C232.043 14.3026 231.786 14.4771 231.571 14.6966C230.752 15.5307 230.22 16.6059 230.055 17.7646C229.89 18.9234 230.099 20.1047 230.652 21.1356L230.654 21.1375C230.882 21.5592 231.166 21.9483 231.497 22.2946C231.534 22.3376 231.577 22.3805 231.619 22.4234C232.637 23.4362 234.014 24.0031 235.448 24H235.483C236.199 23.997 236.907 23.8518 237.567 23.5728C238.227 23.2939 238.825 22.8866 239.327 22.3746C239.542 22.1558 239.712 21.8966 239.828 21.6117C239.943 21.3269 240.002 21.022 240 20.7146C239.998 20.4071 239.936 20.103 239.816 19.8197C239.697 19.5364 239.523 19.2794 239.305 19.0634V19.0634ZM239.048 22.1015C238.582 22.5766 238.027 22.9545 237.415 23.2134C236.803 23.4722 236.145 23.607 235.481 23.6098H235.448C234.45 23.6094 233.474 23.3132 232.644 22.7584C231.813 22.2036 231.165 21.415 230.78 20.4917C230.396 19.5685 230.292 18.5519 230.482 17.5697C230.672 16.5875 231.148 15.6836 231.849 14.9717C232.212 14.6039 232.705 14.3955 233.221 14.3922C233.737 14.3889 234.234 14.591 234.601 14.9541L239.033 19.3405C239.399 19.7049 239.607 20.2002 239.61 20.7178C239.613 21.2353 239.411 21.7329 239.048 22.1015L239.048 22.1015Z" fill="#3F3D56"/>
<path d="M255 35.4521L249.841 30.5014C249.503 30.1775 249.046 29.9972 248.571 30C248.096 30.0029 247.642 30.1887 247.308 30.5167C246.89 30.9269 246.559 31.4133 246.335 31.9478C246.111 32.4823 245.997 33.0546 246 33.6319C246.003 34.2092 246.124 34.7802 246.354 35.3122C246.585 35.8442 246.921 36.3269 247.344 36.7326C247.767 37.1382 248.268 37.459 248.818 37.6764C249.368 37.8939 249.957 38.0038 250.552 37.9999C251.146 37.996 251.733 37.8783 252.281 37.6537C252.828 37.429 253.324 37.1017 253.741 36.6905L255 35.4521Z" fill="#9E23FF"/>
<path d="M240 20.4521L234.841 15.5014C234.503 15.1775 234.046 14.9972 233.571 15C233.096 15.0029 232.642 15.1887 232.308 15.5167C231.89 15.9269 231.559 16.4133 231.335 16.9478C231.111 17.4823 230.997 18.0546 231 18.6319C231.003 19.2092 231.124 19.7802 231.354 20.3122C231.585 20.8442 231.921 21.3269 232.344 21.7326C232.767 22.1382 233.268 22.459 233.818 22.6764C234.368 22.8939 234.957 23.0038 235.552 22.9999C236.146 22.996 236.733 22.8783 237.281 22.6537C237.828 22.429 238.324 22.1017 238.741 21.6905L240 20.4521Z" fill="#9E23FF"/>
<path d="M249 38.6803L248.88 39C248.317 38.7835 247.771 38.5663 247.242 38.3485C237.877 34.4776 233.406 29.9472 230.416 21.3476L230.414 21.3456C230.272 20.9409 230.134 20.5268 230 20.1032L230.316 20C230.421 20.4074 230.575 20.8001 230.775 21.1695C230.939 21.641 231.107 22.1003 231.281 22.5475C234.091 29.8055 238.236 33.9536 246.183 37.4561C246.583 37.6322 246.992 37.8069 247.412 37.9802C247.899 38.3017 248.436 38.5383 249 38.6803Z" fill="#3F3D56"/>
<path d="M234.693 23.8961L234.413 24.179L244.737 34.3758L245.017 34.0928L234.693 23.8961Z" fill="#3F3D56"/>
</svg>
