<svg width="78" height="34" viewBox="0 0 78 34" fill="none" xmlns="http://www.w3.org/2000/svg">
<path d="M8.86328 1.37891V26.6719H13.8633V33H0.640625V1.37891H8.86328ZM34.0391 19.8945C34.0391 23.0716 33.9609 25.3242 33.8047 26.6523C33.6615 27.9674 33.1927 29.1719 32.3984 30.2656C31.6172 31.3594 30.556 32.1992 29.2148 32.7852C27.8737 33.3711 26.3112 33.6641 24.5273 33.6641C22.8346 33.6641 21.3112 33.3906 19.957 32.8438C18.6159 32.2839 17.5352 31.4505 16.7148 30.3438C15.8945 29.237 15.4062 28.0326 15.25 26.7305C15.0938 25.4284 15.0156 23.1497 15.0156 19.8945V14.4844C15.0156 11.3073 15.0872 9.0612 15.2305 7.74609C15.3867 6.41797 15.8555 5.20703 16.6367 4.11328C17.431 3.01953 18.4987 2.17969 19.8398 1.59375C21.181 1.00781 22.7435 0.714844 24.5273 0.714844C26.2201 0.714844 27.737 0.994792 29.0781 1.55469C30.4323 2.10156 31.5195 2.92839 32.3398 4.03516C33.1602 5.14193 33.6484 6.34635 33.8047 7.64844C33.9609 8.95052 34.0391 11.2292 34.0391 14.4844V19.8945ZM25.8164 9.50391C25.8164 8.03255 25.7318 7.09505 25.5625 6.69141C25.4062 6.27474 25.0742 6.06641 24.5664 6.06641C24.1367 6.06641 23.8047 6.23568 23.5703 6.57422C23.349 6.89974 23.2383 7.8763 23.2383 9.50391V24.2695C23.2383 26.1055 23.3099 27.2383 23.4531 27.668C23.6094 28.0977 23.9609 28.3125 24.5078 28.3125C25.0677 28.3125 25.4258 28.0651 25.582 27.5703C25.7383 27.0755 25.8164 25.8971 25.8164 24.0352V9.50391ZM55.9922 13.0195H47.7695V10.1484C47.7695 8.33854 47.6914 7.20573 47.5352 6.75C47.3789 6.29427 47.0078 6.06641 46.4219 6.06641C45.9141 6.06641 45.569 6.26172 45.3867 6.65234C45.2044 7.04297 45.1133 8.04557 45.1133 9.66016V24.8359C45.1133 26.2552 45.2044 27.1927 45.3867 27.6484C45.569 28.0911 45.9336 28.3125 46.4805 28.3125C47.0794 28.3125 47.4831 28.0586 47.6914 27.5508C47.9128 27.043 48.0234 26.0534 48.0234 24.582V20.832H46.3633V16.0273H55.9922V33H50.8164L50.0547 30.7344C49.4948 31.7109 48.7852 32.4466 47.9258 32.9414C47.0794 33.4232 46.0768 33.6641 44.918 33.6641C43.5378 33.6641 42.2422 33.332 41.0312 32.668C39.8333 31.9909 38.9219 31.1576 38.2969 30.168C37.6719 29.1784 37.2812 28.1432 37.125 27.0625C36.9688 25.9688 36.8906 24.3346 36.8906 22.1602V12.7656C36.8906 9.74479 37.0534 7.55078 37.3789 6.18359C37.7044 4.81641 38.6354 3.56641 40.1719 2.43359C41.7214 1.28776 43.7201 0.714844 46.168 0.714844C48.5768 0.714844 50.5755 1.20964 52.1641 2.19922C53.7526 3.1888 54.7878 4.36719 55.2695 5.73438C55.7513 7.08854 55.9922 9.0612 55.9922 11.6523V13.0195ZM77.9844 19.8945C77.9844 23.0716 77.9062 25.3242 77.75 26.6523C77.6068 27.9674 77.138 29.1719 76.3438 30.2656C75.5625 31.3594 74.5013 32.1992 73.1602 32.7852C71.819 33.3711 70.2565 33.6641 68.4727 33.6641C66.7799 33.6641 65.2565 33.3906 63.9023 32.8438C62.5612 32.2839 61.4805 31.4505 60.6602 30.3438C59.8398 29.237 59.3516 28.0326 59.1953 26.7305C59.0391 25.4284 58.9609 23.1497 58.9609 19.8945V14.4844C58.9609 11.3073 59.0326 9.0612 59.1758 7.74609C59.332 6.41797 59.8008 5.20703 60.582 4.11328C61.3763 3.01953 62.444 2.17969 63.7852 1.59375C65.1263 1.00781 66.6888 0.714844 68.4727 0.714844C70.1654 0.714844 71.6823 0.994792 73.0234 1.55469C74.3776 2.10156 75.4648 2.92839 76.2852 4.03516C77.1055 5.14193 77.5938 6.34635 77.75 7.64844C77.9062 8.95052 77.9844 11.2292 77.9844 14.4844V19.8945ZM69.7617 9.50391C69.7617 8.03255 69.6771 7.09505 69.5078 6.69141C69.3516 6.27474 69.0195 6.06641 68.5117 6.06641C68.082 6.06641 67.75 6.23568 67.5156 6.57422C67.2943 6.89974 67.1836 7.8763 67.1836 9.50391V24.2695C67.1836 26.1055 67.2552 27.2383 67.3984 27.668C67.5547 28.0977 67.9062 28.3125 68.4531 28.3125C69.013 28.3125 69.3711 28.0651 69.5273 27.5703C69.6836 27.0755 69.7617 25.8971 69.7617 24.0352V9.50391Z" fill="white"/>
</svg>
